<svg xmlns="http://www.w3.org/2000/svg" viewBox="0 0 254.49 252.94"><defs><style>.cls-1{fill:#57abff;}.cls-2{font-size:26.14px;fill:#fff;font-family:Nunito-SemiBold, Nunito;font-weight:600;}.cls-3{letter-spacing:-0.04em;}.cls-4{letter-spacing:-0.01em;}.cls-5{letter-spacing:-0.02em;}</style></defs><title>powerstar_1</title><g id="Layer_2" data-name="Layer 2"><g id="Layer_1-2" data-name="Layer 1"><polygon class="cls-1" points="232.17 198.61 169.43 173.15 185.85 238.84 142.12 187.14 126.14 252.94 111.45 186.84 66.71 237.67 84.43 172.31 21.19 196.54 67.25 146.9 0 138.96 63.85 116.41 7.99 78.13 75.01 87.83 43.34 27.98 98.17 67.72 97.95 0 128.03 60.67 159.3 0.6 157.74 68.3 213.34 29.65 180.5 88.87 247.7 80.48 191.1 117.66 254.49 141.46 187.1 148.07 232.17 198.61"/><text class="cls-2" transform="translate(85.2 117.4)"><tspan class="cls-3">L</tspan><tspan x="13.33" y="0">OGIC </tspan><tspan class="cls-4" x="-7.31" y="31.37">P</tspan><tspan class="cls-5" x="9.48" y="31.37">O</tspan><tspan x="29.19" y="31.37">WER</tspan></text></g></g></svg>